# xmcd
#
# Track frame offsets: 
#        150
#        5177
#        24272
#        49275
#        72747
#        95430
#        117792
#        139845
#        160625
#        175600
#        198122
#        215000
#
# Disc length: 2981 seconds
#
# Revision: 14
# Processed by: cddbd v1.5.2PL0 Copyright (c) Steve Scherf et al.
# Submitted via: ExactAudioCopy v1.3
#
DISCID=a40ba30c
DTITLE=MALICE MIZER - merveilles
DYEAR=1998
DGENRE=Gothic Rock
TTITLE0=de merveilles
TTITLE1=Syunikiss
TTITLE2=Verte Aile(Bel Air)
TTITLE3=ILLUMINATI
TTITLE4=Brise
TTITLE5=Egee
TTITLE6=au revoir
TTITLE7=Ju te veux
TTITLE8=S-CONSCIOUS
TTITLE9=Le ciel
TTITLE10=月下の夜想曲
TTITLE11=Bois de merveilles
EXTD=YEAR: 1998
EXTT0=
EXTT1=
EXTT2=
EXTT3=
EXTT4=
EXTT5=
EXTT6=
EXTT7=
EXTT8=
EXTT9=
EXTT10=
EXTT11=
PLAYORDER=
